<svg xmlns="http://www.w3.org/2000/svg" xmlns:xlink="http://www.w3.org/1999/xlink" width="96" zoomAndPan="magnify" viewBox="0 0 72 72" height="96" preserveAspectRatio="xMidYMid meet" version="1.0"><defs><g/></defs><path stroke-linecap="butt" transform="matrix(0.348425, 0, 0, 0.348425, -12.738017, -39.849781)" fill="none" stroke-linejoin="miter" d="M 162.897354 141.681491 L 152.97548 186.615809 L 113.714008 186.615809 L 116.830709 172.018882 L 100.675432 172.018882 L 93.589981 204.183692 L 144.185933 204.183692 L 103.085831 234.521083 L 86.930553 234.521083 L 79.564823 268.524522 L 95.720101 268.524522 L 98.982547 253.793062 L 138.378553 253.793062 L 128.456679 298.861913 L 33.363645 298.861913 L 62.983522 163.655359 L 46.110731 141.681491 Z M 162.897354 141.681491 " stroke="#ffffff" stroke-width="11.247381" stroke-opacity="1" stroke-miterlimit="4"/><g fill="#a7ed13" fill-opacity="1"><g transform="translate(-1.163766, 64.329363)"><g><path d="M 45.1875 -54.8125 L 41.71875 -39.15625 L 28.046875 -39.15625 L 29.125 -44.25 L 23.5 -44.25 L 21.03125 -33.03125 L 38.65625 -33.03125 L 24.34375 -22.46875 L 18.71875 -22.46875 L 16.140625 -10.609375 L 21.78125 -10.609375 L 22.90625 -15.75 L 36.640625 -15.75 L 33.1875 -0.046875 L 0.046875 -0.046875 L 10.375 -47.15625 L 4.5 -54.8125 Z M 45.1875 -54.8125 "/></g></g></g><path stroke-linecap="butt" transform="matrix(0.344216, 0, 0, 0.344216, 24.308847, -39.727606)" fill="none" stroke-linejoin="miter" d="M 19.472876 298.859398 C 18.33805 298.859398 17.157831 298.428164 15.932219 297.588393 C 14.797393 296.82806 13.764702 295.931547 12.811448 294.887508 C 11.960329 293.854816 11.211344 292.719991 10.541797 291.48303 C 10.360225 290.926966 10.190001 290.382249 10.053822 289.86023 C 9.906294 289.33821 9.928991 288.895628 10.121911 288.509787 L 22.729826 230.406708 L 57.455494 251.945701 L 53.76731 268.525505 L 81.831551 268.525505 L 86.223327 248.257517 L 27.836542 207.449182 L 42.146694 141.686029 L 137.5288 141.686029 C 138.754412 141.686029 139.945979 142.060522 141.069457 142.820855 C 142.204282 143.581188 143.248322 144.477701 144.190227 145.510392 C 145.041347 146.554432 145.80168 147.689258 146.459879 148.914869 C 146.834371 150.140481 146.981899 151.184521 146.879764 152.03564 L 134.975442 206.314357 L 100.261122 184.775364 L 102.950659 172.019922 L 75.317652 172.019922 L 72.060702 186.897488 L 130.29996 227.85335 L 114.854981 298.859398 Z M 19.472876 298.859398 " stroke="#ffffff" stroke-width="11.247381" stroke-opacity="1" stroke-miterlimit="4"/><g fill="#1791c8" fill-opacity="1"><g transform="translate(25.841683, 63.192929)"><g><path d="M 5.171875 -0.046875 C 4.773438 -0.046875 4.367188 -0.191406 3.953125 -0.484375 C 3.554688 -0.742188 3.195312 -1.054688 2.875 -1.421875 C 2.582031 -1.773438 2.320312 -2.160156 2.09375 -2.578125 C 2.03125 -2.773438 1.972656 -2.960938 1.921875 -3.140625 C 1.878906 -3.328125 1.890625 -3.484375 1.953125 -3.609375 L 6.296875 -23.609375 L 18.25 -16.203125 L 16.96875 -10.484375 L 26.640625 -10.484375 L 28.140625 -17.46875 L 8.046875 -31.515625 L 12.96875 -54.140625 L 45.8125 -54.140625 C 46.226562 -54.140625 46.632812 -54.015625 47.03125 -53.765625 C 47.414062 -53.503906 47.769531 -53.191406 48.09375 -52.828125 C 48.382812 -52.472656 48.644531 -52.082031 48.875 -51.65625 C 49.007812 -51.238281 49.0625 -50.882812 49.03125 -50.59375 L 44.921875 -31.90625 L 32.984375 -39.3125 L 33.90625 -43.703125 L 24.390625 -43.703125 L 23.265625 -38.59375 L 43.3125 -24.484375 L 38 -0.046875 Z M 5.171875 -0.046875 "/></g></g></g></svg>